<mxfile host="65bd71144e" pages="2">
    <diagram name="API" id="DNGqhkZx8wP-tib2X6vi">
        <mxGraphModel dx="1216" dy="825" grid="1" gridSize="10" guides="1" tooltips="1" connect="1" arrows="1" fold="1" page="1" pageScale="1" pageWidth="2000" pageHeight="2000" math="0" shadow="0">
            <root>
                <mxCell id="0"/>
                <mxCell id="1" parent="0"/>
                <mxCell id="OuIIFVC9VFrKUeWjhMgJ-83" value="" style="rounded=0;whiteSpace=wrap;html=1;fillColor=#f8cecc;strokeColor=#b85450;" parent="1" vertex="1">
                    <mxGeometry x="540" y="860" width="600" height="560" as="geometry"/>
                </mxCell>
                <mxCell id="OuIIFVC9VFrKUeWjhMgJ-86" value="&lt;h3&gt;SESSION | Workflow&lt;/h3&gt;" style="text;html=1;align=center;verticalAlign=middle;whiteSpace=wrap;rounded=0;" parent="1" vertex="1">
                    <mxGeometry x="545" y="875" width="140" height="30" as="geometry"/>
                </mxCell>
                <mxCell id="OuIIFVC9VFrKUeWjhMgJ-101" style="edgeStyle=orthogonalEdgeStyle;rounded=0;orthogonalLoop=1;jettySize=auto;html=1;exitX=0.5;exitY=1;exitDx=0;exitDy=0;entryX=0.5;entryY=0;entryDx=0;entryDy=0;" parent="1" source="OuIIFVC9VFrKUeWjhMgJ-93" target="OuIIFVC9VFrKUeWjhMgJ-100" edge="1">
                    <mxGeometry relative="1" as="geometry"/>
                </mxCell>
                <mxCell id="OuIIFVC9VFrKUeWjhMgJ-93" value="Optional Output" style="shape=parallelogram;perimeter=parallelogramPerimeter;whiteSpace=wrap;html=1;fixedSize=1;" parent="1" vertex="1">
                    <mxGeometry x="780" y="1102.5" width="120" height="60" as="geometry"/>
                </mxCell>
                <mxCell id="OuIIFVC9VFrKUeWjhMgJ-99" style="edgeStyle=orthogonalEdgeStyle;rounded=0;orthogonalLoop=1;jettySize=auto;html=1;exitX=0.5;exitY=1;exitDx=0;exitDy=0;entryX=0.5;entryY=0;entryDx=0;entryDy=0;" parent="1" source="OuIIFVC9VFrKUeWjhMgJ-97" target="OuIIFVC9VFrKUeWjhMgJ-98" edge="1">
                    <mxGeometry relative="1" as="geometry"/>
                </mxCell>
                <mxCell id="OuIIFVC9VFrKUeWjhMgJ-97" value="Create Session" style="ellipse;whiteSpace=wrap;html=1;" parent="1" vertex="1">
                    <mxGeometry x="780" y="922.5" width="120" height="55" as="geometry"/>
                </mxCell>
                <mxCell id="OuIIFVC9VFrKUeWjhMgJ-102" style="edgeStyle=orthogonalEdgeStyle;rounded=0;orthogonalLoop=1;jettySize=auto;html=1;exitX=0.5;exitY=1;exitDx=0;exitDy=0;entryX=0.5;entryY=0;entryDx=0;entryDy=0;" parent="1" source="OuIIFVC9VFrKUeWjhMgJ-98" target="OuIIFVC9VFrKUeWjhMgJ-93" edge="1">
                    <mxGeometry relative="1" as="geometry"/>
                </mxCell>
                <mxCell id="OuIIFVC9VFrKUeWjhMgJ-98" value="Execute code&lt;div&gt;(Interpreter)&lt;/div&gt;" style="rounded=0;whiteSpace=wrap;html=1;" parent="1" vertex="1">
                    <mxGeometry x="780" y="1007.5" width="120" height="60" as="geometry"/>
                </mxCell>
                <mxCell id="OuIIFVC9VFrKUeWjhMgJ-100" value="Need Input ?" style="rhombus;whiteSpace=wrap;html=1;" parent="1" vertex="1">
                    <mxGeometry x="780" y="1202.5" width="120" height="80" as="geometry"/>
                </mxCell>
                <mxCell id="OuIIFVC9VFrKUeWjhMgJ-106" value="" style="endArrow=classic;html=1;rounded=0;exitX=0.5;exitY=1;exitDx=0;exitDy=0;entryX=0.5;entryY=0;entryDx=0;entryDy=0;" parent="1" source="OuIIFVC9VFrKUeWjhMgJ-100" target="OuIIFVC9VFrKUeWjhMgJ-108" edge="1">
                    <mxGeometry relative="1" as="geometry">
                        <mxPoint x="900" y="1180" as="sourcePoint"/>
                        <mxPoint x="820" y="1320" as="targetPoint"/>
                    </mxGeometry>
                </mxCell>
                <mxCell id="OuIIFVC9VFrKUeWjhMgJ-107" value="No" style="edgeLabel;resizable=0;html=1;;align=center;verticalAlign=middle;" parent="OuIIFVC9VFrKUeWjhMgJ-106" connectable="0" vertex="1">
                    <mxGeometry relative="1" as="geometry">
                        <mxPoint y="-5" as="offset"/>
                    </mxGeometry>
                </mxCell>
                <mxCell id="OuIIFVC9VFrKUeWjhMgJ-108" value="Delete Session" style="ellipse;whiteSpace=wrap;html=1;" parent="1" vertex="1">
                    <mxGeometry x="780" y="1322.5" width="120" height="55" as="geometry"/>
                </mxCell>
                <mxCell id="OuIIFVC9VFrKUeWjhMgJ-109" value="" style="endArrow=classic;html=1;rounded=0;exitX=1;exitY=0.5;exitDx=0;exitDy=0;edgeStyle=orthogonalEdgeStyle;entryX=0.5;entryY=1;entryDx=0;entryDy=0;" parent="1" source="OuIIFVC9VFrKUeWjhMgJ-100" target="OuIIFVC9VFrKUeWjhMgJ-111" edge="1">
                    <mxGeometry relative="1" as="geometry">
                        <mxPoint x="900" y="1170" as="sourcePoint"/>
                        <mxPoint x="960" y="1240" as="targetPoint"/>
                    </mxGeometry>
                </mxCell>
                <mxCell id="OuIIFVC9VFrKUeWjhMgJ-110" value="Yes" style="edgeLabel;resizable=0;html=1;;align=center;verticalAlign=middle;" parent="OuIIFVC9VFrKUeWjhMgJ-109" connectable="0" vertex="1">
                    <mxGeometry relative="1" as="geometry">
                        <mxPoint x="-45" as="offset"/>
                    </mxGeometry>
                </mxCell>
                <mxCell id="OuIIFVC9VFrKUeWjhMgJ-112" style="edgeStyle=orthogonalEdgeStyle;rounded=0;orthogonalLoop=1;jettySize=auto;html=1;exitX=0.5;exitY=0;exitDx=0;exitDy=0;entryX=1;entryY=0.5;entryDx=0;entryDy=0;" parent="1" source="OuIIFVC9VFrKUeWjhMgJ-111" target="OuIIFVC9VFrKUeWjhMgJ-98" edge="1">
                    <mxGeometry relative="1" as="geometry"/>
                </mxCell>
                <mxCell id="OuIIFVC9VFrKUeWjhMgJ-111" value="Wait for input" style="shape=trapezoid;perimeter=trapezoidPerimeter;whiteSpace=wrap;html=1;fixedSize=1;" parent="1" vertex="1">
                    <mxGeometry x="970" y="1102.5" width="120" height="60" as="geometry"/>
                </mxCell>
                <mxCell id="OuIIFVC9VFrKUeWjhMgJ-113" value="Session" style="swimlane;fontStyle=0;childLayout=stackLayout;horizontal=1;startSize=30;horizontalStack=0;resizeParent=1;resizeParentMax=0;resizeLast=0;collapsible=1;marginBottom=0;whiteSpace=wrap;html=1;" parent="1" vertex="1">
                    <mxGeometry x="550" y="920" width="130" height="90" as="geometry"/>
                </mxCell>
                <mxCell id="OuIIFVC9VFrKUeWjhMgJ-114" value="sessions" style="text;strokeColor=none;fillColor=none;align=left;verticalAlign=middle;spacingLeft=4;spacingRight=4;overflow=hidden;points=[[0,0.5],[1,0.5]];portConstraint=eastwest;rotatable=0;whiteSpace=wrap;html=1;" parent="OuIIFVC9VFrKUeWjhMgJ-113" vertex="1">
                    <mxGeometry y="30" width="130" height="30" as="geometry"/>
                </mxCell>
                <mxCell id="OuIIFVC9VFrKUeWjhMgJ-115" value="code" style="text;strokeColor=none;fillColor=none;align=left;verticalAlign=middle;spacingLeft=4;spacingRight=4;overflow=hidden;points=[[0,0.5],[1,0.5]];portConstraint=eastwest;rotatable=0;whiteSpace=wrap;html=1;" parent="OuIIFVC9VFrKUeWjhMgJ-113" vertex="1">
                    <mxGeometry y="60" width="130" height="30" as="geometry"/>
                </mxCell>
                <mxCell id="OuIIFVC9VFrKUeWjhMgJ-117" value="User" style="shape=umlActor;verticalLabelPosition=bottom;verticalAlign=top;html=1;outlineConnect=0;" parent="1" vertex="1">
                    <mxGeometry x="1400" y="1092" width="40" height="80" as="geometry"/>
                </mxCell>
                <mxCell id="OuIIFVC9VFrKUeWjhMgJ-119" style="edgeStyle=orthogonalEdgeStyle;rounded=0;orthogonalLoop=1;jettySize=auto;html=1;exitX=0;exitY=0.5;exitDx=0;exitDy=0;entryX=1;entryY=0.5;entryDx=0;entryDy=0;dashed=1;" parent="1" source="OuIIFVC9VFrKUeWjhMgJ-122" target="OuIIFVC9VFrKUeWjhMgJ-111" edge="1">
                    <mxGeometry relative="1" as="geometry">
                        <mxPoint x="1220" y="1132.5" as="sourcePoint"/>
                    </mxGeometry>
                </mxCell>
                <mxCell id="OuIIFVC9VFrKUeWjhMgJ-121" style="edgeStyle=orthogonalEdgeStyle;rounded=0;orthogonalLoop=1;jettySize=auto;html=1;exitX=1;exitY=0.5;exitDx=0;exitDy=0;startArrow=classic;startFill=1;endArrow=none;endFill=0;" parent="1" source="OuIIFVC9VFrKUeWjhMgJ-122" target="OuIIFVC9VFrKUeWjhMgJ-117" edge="1">
                    <mxGeometry relative="1" as="geometry">
                        <mxPoint x="1320" y="1132" as="sourcePoint"/>
                    </mxGeometry>
                </mxCell>
                <mxCell id="OuIIFVC9VFrKUeWjhMgJ-122" value="API&lt;div&gt;&lt;br&gt;&lt;/div&gt;&lt;div&gt;/execute/input&lt;/div&gt;" style="shape=process;whiteSpace=wrap;html=1;backgroundOutline=1;" parent="1" vertex="1">
                    <mxGeometry x="1200" y="1102.5" width="120" height="60" as="geometry"/>
                </mxCell>
                <mxCell id="OuIIFVC9VFrKUeWjhMgJ-123" value="" style="endArrow=none;dashed=1;html=1;dashPattern=1 3;strokeWidth=2;rounded=0;exitX=0.25;exitY=1;exitDx=0;exitDy=0;entryX=0.25;entryY=0;entryDx=0;entryDy=0;fillColor=#f8cecc;strokeColor=#b85450;" parent="1" source="OuIIFVC9VFrKUeWjhMgJ-83" target="OuIIFVC9VFrKUeWjhMgJ-83" edge="1">
                    <mxGeometry width="50" height="50" relative="1" as="geometry">
                        <mxPoint x="760" y="1160" as="sourcePoint"/>
                        <mxPoint x="810" y="1110" as="targetPoint"/>
                    </mxGeometry>
                </mxCell>
                <mxCell id="OuIIFVC9VFrKUeWjhMgJ-132" value="User" style="shape=umlActor;verticalLabelPosition=bottom;verticalAlign=top;html=1;outlineConnect=0;" parent="1" vertex="1">
                    <mxGeometry x="820" y="580" width="40" height="80" as="geometry"/>
                </mxCell>
                <mxCell id="OuIIFVC9VFrKUeWjhMgJ-133" style="edgeStyle=orthogonalEdgeStyle;rounded=0;orthogonalLoop=1;jettySize=auto;html=1;exitX=0.5;exitY=1;exitDx=0;exitDy=0;entryX=0.5;entryY=0;entryDx=0;entryDy=0;dashed=1;" parent="1" source="OuIIFVC9VFrKUeWjhMgJ-135" target="OuIIFVC9VFrKUeWjhMgJ-97" edge="1">
                    <mxGeometry relative="1" as="geometry">
                        <mxPoint x="870.0000000000005" y="807.5" as="sourcePoint"/>
                        <mxPoint x="910.0000000000005" y="970" as="targetPoint"/>
                    </mxGeometry>
                </mxCell>
                <mxCell id="OuIIFVC9VFrKUeWjhMgJ-136" style="edgeStyle=orthogonalEdgeStyle;rounded=0;orthogonalLoop=1;jettySize=auto;html=1;exitX=0.5;exitY=0;exitDx=0;exitDy=0;endArrow=none;endFill=0;startArrow=classic;startFill=1;" parent="1" source="OuIIFVC9VFrKUeWjhMgJ-135" edge="1">
                    <mxGeometry relative="1" as="geometry">
                        <mxPoint x="839.8571428571427" y="680" as="targetPoint"/>
                    </mxGeometry>
                </mxCell>
                <mxCell id="OuIIFVC9VFrKUeWjhMgJ-135" value="API&lt;div&gt;&lt;br&gt;&lt;/div&gt;&lt;div&gt;/execute&lt;/div&gt;" style="shape=process;whiteSpace=wrap;html=1;backgroundOutline=1;" parent="1" vertex="1">
                    <mxGeometry x="780" y="730" width="120" height="60" as="geometry"/>
                </mxCell>
                <mxCell id="OuIIFVC9VFrKUeWjhMgJ-138" value="ExecuteRequest" style="swimlane;fontStyle=0;childLayout=stackLayout;horizontal=1;startSize=30;horizontalStack=0;resizeParent=1;resizeParentMax=0;resizeLast=0;collapsible=1;marginBottom=0;whiteSpace=wrap;html=1;" parent="1" vertex="1">
                    <mxGeometry x="980" y="730" width="140" height="60" as="geometry"/>
                </mxCell>
                <mxCell id="OuIIFVC9VFrKUeWjhMgJ-139" value="source_code" style="text;strokeColor=none;fillColor=none;align=left;verticalAlign=middle;spacingLeft=4;spacingRight=4;overflow=hidden;points=[[0,0.5],[1,0.5]];portConstraint=eastwest;rotatable=0;whiteSpace=wrap;html=1;" parent="OuIIFVC9VFrKUeWjhMgJ-138" vertex="1">
                    <mxGeometry y="30" width="140" height="30" as="geometry"/>
                </mxCell>
                <mxCell id="OuIIFVC9VFrKUeWjhMgJ-142" value="" style="endArrow=classic;html=1;rounded=0;exitX=0;exitY=0.5;exitDx=0;exitDy=0;entryX=1;entryY=0.5;entryDx=0;entryDy=0;" parent="1" source="OuIIFVC9VFrKUeWjhMgJ-138" target="OuIIFVC9VFrKUeWjhMgJ-135" edge="1">
                    <mxGeometry relative="1" as="geometry">
                        <mxPoint x="950" y="759.5699999999999" as="sourcePoint"/>
                        <mxPoint x="900" y="759.5699999999999" as="targetPoint"/>
                    </mxGeometry>
                </mxCell>
                <mxCell id="OuIIFVC9VFrKUeWjhMgJ-144" value="Content" style="edgeLabel;resizable=0;html=1;;align=left;verticalAlign=bottom;" parent="OuIIFVC9VFrKUeWjhMgJ-142" connectable="0" vertex="1">
                    <mxGeometry x="-1" relative="1" as="geometry">
                        <mxPoint x="-60" y="8" as="offset"/>
                    </mxGeometry>
                </mxCell>
                <mxCell id="OuIIFVC9VFrKUeWjhMgJ-145" value="ExecuteInputRequest" style="swimlane;fontStyle=0;childLayout=stackLayout;horizontal=1;startSize=30;horizontalStack=0;resizeParent=1;resizeParentMax=0;resizeLast=0;collapsible=1;marginBottom=0;whiteSpace=wrap;html=1;" parent="1" vertex="1">
                    <mxGeometry x="1190" y="1219.5" width="140" height="90" as="geometry"/>
                </mxCell>
                <mxCell id="OuIIFVC9VFrKUeWjhMgJ-146" value="session_code" style="text;strokeColor=none;fillColor=none;align=left;verticalAlign=middle;spacingLeft=4;spacingRight=4;overflow=hidden;points=[[0,0.5],[1,0.5]];portConstraint=eastwest;rotatable=0;whiteSpace=wrap;html=1;" parent="OuIIFVC9VFrKUeWjhMgJ-145" vertex="1">
                    <mxGeometry y="30" width="140" height="30" as="geometry"/>
                </mxCell>
                <mxCell id="OuIIFVC9VFrKUeWjhMgJ-149" value="input" style="text;strokeColor=none;fillColor=none;align=left;verticalAlign=middle;spacingLeft=4;spacingRight=4;overflow=hidden;points=[[0,0.5],[1,0.5]];portConstraint=eastwest;rotatable=0;whiteSpace=wrap;html=1;" parent="OuIIFVC9VFrKUeWjhMgJ-145" vertex="1">
                    <mxGeometry y="60" width="140" height="30" as="geometry"/>
                </mxCell>
                <mxCell id="OuIIFVC9VFrKUeWjhMgJ-147" value="" style="endArrow=classic;html=1;rounded=0;exitX=0.5;exitY=0;exitDx=0;exitDy=0;entryX=0.5;entryY=1;entryDx=0;entryDy=0;" parent="1" source="OuIIFVC9VFrKUeWjhMgJ-145" target="OuIIFVC9VFrKUeWjhMgJ-122" edge="1">
                    <mxGeometry relative="1" as="geometry">
                        <mxPoint x="1260" y="1189.5" as="sourcePoint"/>
                        <mxPoint x="1180" y="1189.5" as="targetPoint"/>
                    </mxGeometry>
                </mxCell>
                <mxCell id="OuIIFVC9VFrKUeWjhMgJ-148" value="Content" style="edgeLabel;resizable=0;html=1;;align=left;verticalAlign=bottom;" parent="OuIIFVC9VFrKUeWjhMgJ-147" connectable="0" vertex="1">
                    <mxGeometry x="-1" relative="1" as="geometry">
                        <mxPoint x="-21" y="-19" as="offset"/>
                    </mxGeometry>
                </mxCell>
            </root>
        </mxGraphModel>
    </diagram>
    <diagram id="Gi6cxAC0LsOh-5aQalHr" name="ARCHIVE-DRAFT-SCHEMES">
        <mxGraphModel dx="1737" dy="1179" grid="1" gridSize="10" guides="1" tooltips="1" connect="1" arrows="1" fold="1" page="1" pageScale="1" pageWidth="2000" pageHeight="2000" math="0" shadow="0">
            <root>
                <mxCell id="0"/>
                <mxCell id="1" parent="0"/>
                <mxCell id="ErEkZGrUqXHYyFfgnixQ-1" value="" style="rounded=0;whiteSpace=wrap;html=1;fillColor=#e1d5e7;strokeColor=#9673a6;" parent="1" vertex="1">
                    <mxGeometry x="1060" y="1190" width="440" height="280" as="geometry"/>
                </mxCell>
                <mxCell id="ErEkZGrUqXHYyFfgnixQ-2" value="" style="rounded=0;whiteSpace=wrap;html=1;fillColor=#d5e8d4;strokeColor=#82b366;" parent="1" vertex="1">
                    <mxGeometry x="1060" y="830" width="440" height="280" as="geometry"/>
                </mxCell>
                <mxCell id="ErEkZGrUqXHYyFfgnixQ-3" value="" style="rounded=0;whiteSpace=wrap;html=1;fillColor=#dae8fc;strokeColor=#6c8ebf;" parent="1" vertex="1">
                    <mxGeometry x="500" y="830" width="520" height="640" as="geometry"/>
                </mxCell>
                <mxCell id="ErEkZGrUqXHYyFfgnixQ-4" style="edgeStyle=orthogonalEdgeStyle;rounded=0;orthogonalLoop=1;jettySize=auto;html=1;exitX=0.5;exitY=1;exitDx=0;exitDy=0;entryX=0.5;entryY=0;entryDx=0;entryDy=0;" parent="1" source="ErEkZGrUqXHYyFfgnixQ-5" target="ErEkZGrUqXHYyFfgnixQ-3" edge="1">
                    <mxGeometry relative="1" as="geometry"/>
                </mxCell>
                <mxCell id="ErEkZGrUqXHYyFfgnixQ-5" value="/execute" style="rounded=1;whiteSpace=wrap;html=1;" parent="1" vertex="1">
                    <mxGeometry x="700" y="670" width="120" height="80" as="geometry"/>
                </mxCell>
                <mxCell id="ErEkZGrUqXHYyFfgnixQ-6" style="edgeStyle=orthogonalEdgeStyle;rounded=0;orthogonalLoop=1;jettySize=auto;html=1;entryX=0.5;entryY=0;entryDx=0;entryDy=0;dashed=1;" parent="1" target="ErEkZGrUqXHYyFfgnixQ-5" edge="1">
                    <mxGeometry relative="1" as="geometry">
                        <mxPoint x="760" y="610" as="sourcePoint"/>
                        <mxPoint x="760" y="620" as="targetPoint"/>
                    </mxGeometry>
                </mxCell>
                <mxCell id="ErEkZGrUqXHYyFfgnixQ-7" value="User" style="shape=umlActor;verticalLabelPosition=bottom;verticalAlign=top;html=1;outlineConnect=0;" parent="1" vertex="1">
                    <mxGeometry x="745" y="530" width="30" height="60" as="geometry"/>
                </mxCell>
                <mxCell id="ErEkZGrUqXHYyFfgnixQ-8" style="edgeStyle=orthogonalEdgeStyle;rounded=0;orthogonalLoop=1;jettySize=auto;html=1;exitX=0.5;exitY=1;exitDx=0;exitDy=0;exitPerimeter=0;entryX=0.5;entryY=0;entryDx=0;entryDy=0;dashed=1;curved=1;" parent="1" source="ErEkZGrUqXHYyFfgnixQ-9" target="ErEkZGrUqXHYyFfgnixQ-19" edge="1">
                    <mxGeometry relative="1" as="geometry"/>
                </mxCell>
                <mxCell id="ErEkZGrUqXHYyFfgnixQ-9" value="Interpreter" style="shape=cylinder3;whiteSpace=wrap;html=1;boundedLbl=1;backgroundOutline=1;size=15;" parent="1" vertex="1">
                    <mxGeometry x="720" y="990" width="80" height="80" as="geometry"/>
                </mxCell>
                <mxCell id="ErEkZGrUqXHYyFfgnixQ-10" value="Session" style="swimlane;fontStyle=0;childLayout=stackLayout;horizontal=1;startSize=30;horizontalStack=0;resizeParent=1;resizeParentMax=0;resizeLast=0;collapsible=1;marginBottom=0;whiteSpace=wrap;html=1;" parent="1" vertex="1">
                    <mxGeometry x="690" y="870" width="140" height="60" as="geometry"/>
                </mxCell>
                <mxCell id="ErEkZGrUqXHYyFfgnixQ-11" value="code" style="text;html=1;align=left;verticalAlign=middle;whiteSpace=wrap;rounded=0;" parent="ErEkZGrUqXHYyFfgnixQ-10" vertex="1">
                    <mxGeometry y="30" width="140" height="30" as="geometry"/>
                </mxCell>
                <mxCell id="ErEkZGrUqXHYyFfgnixQ-12" style="edgeStyle=orthogonalEdgeStyle;rounded=0;orthogonalLoop=1;jettySize=auto;html=1;exitX=0.5;exitY=1;exitDx=0;exitDy=0;entryX=0.5;entryY=0;entryDx=0;entryDy=0;dashed=1;" parent="1" source="ErEkZGrUqXHYyFfgnixQ-13" target="ErEkZGrUqXHYyFfgnixQ-24" edge="1">
                    <mxGeometry relative="1" as="geometry"/>
                </mxCell>
                <mxCell id="ErEkZGrUqXHYyFfgnixQ-13" value="@execute_completed" style="rhombus;whiteSpace=wrap;html=1;" parent="1" vertex="1">
                    <mxGeometry x="1290" y="865" width="200" height="80" as="geometry"/>
                </mxCell>
                <mxCell id="ErEkZGrUqXHYyFfgnixQ-14" style="edgeStyle=orthogonalEdgeStyle;rounded=0;orthogonalLoop=1;jettySize=auto;html=1;exitX=0.5;exitY=1;exitDx=0;exitDy=0;entryX=0.5;entryY=0;entryDx=0;entryDy=0;dashed=1;" parent="1" source="ErEkZGrUqXHYyFfgnixQ-15" target="ErEkZGrUqXHYyFfgnixQ-24" edge="1">
                    <mxGeometry relative="1" as="geometry"/>
                </mxCell>
                <mxCell id="ErEkZGrUqXHYyFfgnixQ-15" value="@override_input" style="rhombus;whiteSpace=wrap;html=1;" parent="1" vertex="1">
                    <mxGeometry x="1070" y="865" width="200" height="80" as="geometry"/>
                </mxCell>
                <mxCell id="ErEkZGrUqXHYyFfgnixQ-16" value="@override_print" style="rhombus;whiteSpace=wrap;html=1;" parent="1" vertex="1">
                    <mxGeometry x="1180" y="1290" width="200" height="80" as="geometry"/>
                </mxCell>
                <mxCell id="ErEkZGrUqXHYyFfgnixQ-17" style="edgeStyle=orthogonalEdgeStyle;rounded=0;orthogonalLoop=1;jettySize=auto;html=1;exitX=0.5;exitY=1;exitDx=0;exitDy=0;entryX=0.5;entryY=0;entryDx=0;entryDy=0;entryPerimeter=0;" parent="1" source="ErEkZGrUqXHYyFfgnixQ-10" target="ErEkZGrUqXHYyFfgnixQ-9" edge="1">
                    <mxGeometry relative="1" as="geometry"/>
                </mxCell>
                <mxCell id="ErEkZGrUqXHYyFfgnixQ-18" style="edgeStyle=orthogonalEdgeStyle;rounded=0;orthogonalLoop=1;jettySize=auto;html=1;exitX=0.5;exitY=1;exitDx=0;exitDy=0;entryX=0.5;entryY=0;entryDx=0;entryDy=0;" parent="1" source="ErEkZGrUqXHYyFfgnixQ-19" target="ErEkZGrUqXHYyFfgnixQ-27" edge="1">
                    <mxGeometry relative="1" as="geometry"/>
                </mxCell>
                <mxCell id="ErEkZGrUqXHYyFfgnixQ-19" value="@return" style="rhombus;whiteSpace=wrap;html=1;" parent="1" vertex="1">
                    <mxGeometry x="660" y="1130" width="200" height="80" as="geometry"/>
                </mxCell>
                <mxCell id="ErEkZGrUqXHYyFfgnixQ-20" value="Dispatch" style="swimlane;fontStyle=0;childLayout=stackLayout;horizontal=1;startSize=30;horizontalStack=0;resizeParent=1;resizeParentMax=0;resizeLast=0;collapsible=1;marginBottom=0;whiteSpace=wrap;html=1;" parent="1" vertex="1">
                    <mxGeometry x="850" y="970" width="140" height="120" as="geometry"/>
                </mxCell>
                <mxCell id="ErEkZGrUqXHYyFfgnixQ-21" value="@override_print" style="text;strokeColor=none;fillColor=none;align=left;verticalAlign=middle;spacingLeft=4;spacingRight=4;overflow=hidden;points=[[0,0.5],[1,0.5]];portConstraint=eastwest;rotatable=0;whiteSpace=wrap;html=1;" parent="ErEkZGrUqXHYyFfgnixQ-20" vertex="1">
                    <mxGeometry y="30" width="140" height="30" as="geometry"/>
                </mxCell>
                <mxCell id="ErEkZGrUqXHYyFfgnixQ-22" value="@override_input" style="text;strokeColor=none;fillColor=none;align=left;verticalAlign=middle;spacingLeft=4;spacingRight=4;overflow=hidden;points=[[0,0.5],[1,0.5]];portConstraint=eastwest;rotatable=0;whiteSpace=wrap;html=1;" parent="ErEkZGrUqXHYyFfgnixQ-20" vertex="1">
                    <mxGeometry y="60" width="140" height="30" as="geometry"/>
                </mxCell>
                <mxCell id="ErEkZGrUqXHYyFfgnixQ-23" value="@execute_completed" style="text;strokeColor=none;fillColor=none;align=left;verticalAlign=middle;spacingLeft=4;spacingRight=4;overflow=hidden;points=[[0,0.5],[1,0.5]];portConstraint=eastwest;rotatable=0;whiteSpace=wrap;html=1;" parent="ErEkZGrUqXHYyFfgnixQ-20" vertex="1">
                    <mxGeometry y="90" width="140" height="30" as="geometry"/>
                </mxCell>
                <mxCell id="ErEkZGrUqXHYyFfgnixQ-24" value="Dispatch" style="swimlane;fontStyle=0;childLayout=stackLayout;horizontal=1;startSize=30;horizontalStack=0;resizeParent=1;resizeParentMax=0;resizeLast=0;collapsible=1;marginBottom=0;whiteSpace=wrap;html=1;" parent="1" vertex="1">
                    <mxGeometry x="1210" y="1015" width="140" height="60" as="geometry">
                        <mxRectangle x="1210" y="1015" width="90" height="30" as="alternateBounds"/>
                    </mxGeometry>
                </mxCell>
                <mxCell id="ErEkZGrUqXHYyFfgnixQ-25" value="@return" style="text;strokeColor=none;fillColor=none;align=left;verticalAlign=middle;spacingLeft=4;spacingRight=4;overflow=hidden;points=[[0,0.5],[1,0.5]];portConstraint=eastwest;rotatable=0;whiteSpace=wrap;html=1;" parent="ErEkZGrUqXHYyFfgnixQ-24" vertex="1">
                    <mxGeometry y="30" width="140" height="30" as="geometry"/>
                </mxCell>
                <mxCell id="ErEkZGrUqXHYyFfgnixQ-26" value="" style="endArrow=classic;html=1;rounded=0;exitX=1;exitY=0.5;exitDx=0;exitDy=0;exitPerimeter=0;entryX=-0.007;entryY=0;entryDx=0;entryDy=0;entryPerimeter=0;dashed=1;" parent="1" source="ErEkZGrUqXHYyFfgnixQ-9" target="ErEkZGrUqXHYyFfgnixQ-22" edge="1">
                    <mxGeometry width="50" height="50" relative="1" as="geometry">
                        <mxPoint x="950" y="1060" as="sourcePoint"/>
                        <mxPoint x="1000" y="1010" as="targetPoint"/>
                    </mxGeometry>
                </mxCell>
                <mxCell id="ErEkZGrUqXHYyFfgnixQ-27" value="Return Response" style="swimlane;fontStyle=0;childLayout=stackLayout;horizontal=1;startSize=30;horizontalStack=0;resizeParent=1;resizeParentMax=0;resizeLast=0;collapsible=1;marginBottom=0;whiteSpace=wrap;html=1;" parent="1" vertex="1">
                    <mxGeometry x="690" y="1250" width="140" height="180" as="geometry"/>
                </mxCell>
                <mxCell id="ErEkZGrUqXHYyFfgnixQ-28" value="Result" style="swimlane;fontStyle=0;childLayout=stackLayout;horizontal=1;startSize=30;horizontalStack=0;resizeParent=1;resizeParentMax=0;resizeLast=0;collapsible=1;marginBottom=0;whiteSpace=wrap;html=1;" parent="ErEkZGrUqXHYyFfgnixQ-27" vertex="1">
                    <mxGeometry y="30" width="140" height="60" as="geometry"/>
                </mxCell>
                <mxCell id="ErEkZGrUqXHYyFfgnixQ-29" value="@override_print.result" style="text;strokeColor=none;fillColor=none;align=left;verticalAlign=middle;spacingLeft=4;spacingRight=4;overflow=hidden;points=[[0,0.5],[1,0.5]];portConstraint=eastwest;rotatable=0;whiteSpace=wrap;html=1;" parent="ErEkZGrUqXHYyFfgnixQ-28" vertex="1">
                    <mxGeometry y="30" width="140" height="30" as="geometry"/>
                </mxCell>
                <mxCell id="ErEkZGrUqXHYyFfgnixQ-30" value="Status" style="swimlane;fontStyle=0;childLayout=stackLayout;horizontal=1;startSize=30;horizontalStack=0;resizeParent=1;resizeParentMax=0;resizeLast=0;collapsible=1;marginBottom=0;whiteSpace=wrap;html=1;" parent="ErEkZGrUqXHYyFfgnixQ-27" vertex="1">
                    <mxGeometry y="90" width="140" height="90" as="geometry">
                        <mxRectangle y="60" width="140" height="30" as="alternateBounds"/>
                    </mxGeometry>
                </mxCell>
                <mxCell id="ErEkZGrUqXHYyFfgnixQ-31" value="OR" style="shape=process;whiteSpace=wrap;html=1;backgroundOutline=1;size=0.35714285714285715;" parent="ErEkZGrUqXHYyFfgnixQ-30" vertex="1">
                    <mxGeometry y="30" width="140" height="60" as="geometry"/>
                </mxCell>
                <mxCell id="ErEkZGrUqXHYyFfgnixQ-32" value="&lt;font style=&quot;font-size: 10px;&quot;&gt;waiting&lt;/font&gt;" style="text;html=1;align=center;verticalAlign=middle;whiteSpace=wrap;rounded=0;" parent="1" vertex="1">
                    <mxGeometry x="690" y="1384" width="50" height="30" as="geometry"/>
                </mxCell>
                <mxCell id="ErEkZGrUqXHYyFfgnixQ-33" value="&lt;font style=&quot;font-size: 10px;&quot;&gt;completed&lt;/font&gt;" style="text;html=1;align=center;verticalAlign=middle;whiteSpace=wrap;rounded=0;" parent="1" vertex="1">
                    <mxGeometry x="780" y="1384" width="50" height="30" as="geometry"/>
                </mxCell>
            </root>
        </mxGraphModel>
    </diagram>
</mxfile>